<svg width="207" height="222" viewBox="0 0 207 222" fill="none" xmlns="http://www.w3.org/2000/svg">
<g id="F1">
<g id="3C">
<path id="Union" fill-rule="evenodd" clip-rule="evenodd" d="M113.703 110.505C112.978 109.685 111.863 109.326 110.795 109.567L88.0609 114.713C87.0019 114.953 86.1551 115.746 85.8468 116.787L79.5213 138.142C79.2343 139.111 79.4543 140.159 80.1066 140.931L96.8636 160.754C97.7245 161.773 99.1544 162.101 100.373 161.559L122.542 151.706C123.418 151.317 124.056 150.531 124.257 149.593L128.624 129.201C128.824 128.269 128.569 127.298 127.937 126.584L113.703 110.505Z" fill="#B9FFFC"/>
</g>
<g id="A Shape 2 - FINAL">
<path id="Vector 95" d="M205.513 210.882L185.812 221.046C185.67 221.12 185.513 221.158 185.354 221.158H5.62036C4.56868 221.158 4.22974 219.743 5.1673 219.266L127.741 156.975C127.995 156.845 128.182 156.614 128.254 156.338L133.585 136.153C133.784 135.398 134.733 135.153 135.274 135.717L205.777 209.301C206.239 209.784 206.107 210.575 205.513 210.882Z" fill="#892CDC"/>
<path id="Vector 94" d="M89.5682 166.99L2.14927 211.393C1.22687 211.862 0.15335 211.118 0.268642 210.089L4.02522 176.59C4.04541 176.41 4.10303 176.236 4.19437 176.08L102.122 8.2976C102.886 6.98952 104.89 7.82231 104.502 9.28625L69.5612 140.985C69.4498 141.405 69.5555 141.852 69.8429 142.178L89.9543 164.971C90.5167 165.608 90.3261 166.605 89.5682 166.99Z" fill="#BC6FF1"/>
<path id="Vector 96" d="M112.677 9.9848L88.7829 104.585C88.5065 105.679 89.4921 106.675 90.5893 106.41L113.155 100.961C113.675 100.835 114.223 100.997 114.593 101.384L200.608 191.635C201.774 192.857 203.757 191.52 203.061 189.981L127.777 23.6443C127.716 23.5082 127.634 23.3821 127.535 23.2702L115.256 9.35947C114.458 8.45507 112.972 8.81518 112.677 9.9848Z" fill="#680F98"/>
</g>
</g>
</svg>
