<svg width="228" height="72" viewBox="0 0 228 72" fill="none" xmlns="http://www.w3.org/2000/svg">
<g id="SCANN">
<g id="SCNN">
<path id="SC" d="M25.8205 62.7C22.2738 62.7467 19.1938 62.1867 16.5805 61.02C13.9671 59.8533 11.4705 58.1033 9.09047 55.77C8.85714 55.5833 8.64714 55.35 8.46047 55.07C8.32047 54.79 8.25047 54.4633 8.25047 54.09C8.25047 53.53 8.46047 53.0167 8.88047 52.55C9.34714 52.0833 9.86047 51.85 10.4205 51.85C10.9805 51.85 11.4938 52.0833 11.9605 52.55C13.7805 54.51 15.8338 56.0033 18.1205 57.03C20.4538 58.0567 22.9505 58.57 25.6105 58.57C27.8505 58.57 29.8338 58.22 31.5605 57.52C33.3338 56.82 34.7338 55.8167 35.7605 54.51C36.7871 53.2033 37.3005 51.6867 37.3005 49.96C37.3005 47.8133 36.7171 46.0867 35.5505 44.78C34.3838 43.4267 32.8438 42.33 30.9305 41.49C29.0171 40.6033 26.8938 39.81 24.5605 39.11C22.6471 38.55 20.8271 37.92 19.1005 37.22C17.3738 36.4733 15.8338 35.5867 14.4805 34.56C13.1271 33.4867 12.0771 32.18 11.3305 30.64C10.5838 29.1 10.2105 27.2333 10.2105 25.04C10.2105 22.5667 10.8638 20.3733 12.1705 18.46C13.4771 16.5467 15.3205 15.0533 17.7005 13.98C20.1271 12.86 22.9271 12.3 26.1005 12.3C28.8538 12.3 31.4905 12.7667 34.0105 13.7C36.5771 14.6333 38.6071 16.01 40.1005 17.83C40.8005 18.5767 41.1505 19.2533 41.1505 19.86C41.1505 20.3267 40.9171 20.7933 40.4505 21.26C39.9838 21.7267 39.4705 21.96 38.9105 21.96C38.4438 21.96 38.0471 21.7967 37.7205 21.47C36.9271 20.49 35.9238 19.6267 34.7105 18.88C33.4971 18.0867 32.1438 17.48 30.6505 17.06C29.2038 16.64 27.6871 16.43 26.1005 16.43C23.9071 16.43 21.9238 16.78 20.1505 17.48C18.4238 18.1333 17.0471 19.09 16.0205 20.35C15.0405 21.61 14.5505 23.1267 14.5505 24.9C14.5505 26.86 15.1105 28.47 16.2305 29.73C17.3505 30.99 18.8205 32.04 20.6405 32.88C22.4605 33.6733 24.3971 34.42 26.4505 35.12C28.4571 35.68 30.3705 36.3333 32.1905 37.08C34.0571 37.78 35.6905 38.6667 37.0905 39.74C38.5371 40.8133 39.6571 42.1667 40.4505 43.8C41.2905 45.4333 41.7105 47.4867 41.7105 49.96C41.7105 52.34 41.0338 54.4867 39.6805 56.4C38.3271 58.3133 36.4605 59.83 34.0805 60.95C31.7471 62.07 28.9938 62.6533 25.8205 62.7ZM82.1371 16.64C82.6971 17.0133 83.0238 17.5033 83.1171 18.11C83.2104 18.67 83.0704 19.23 82.6971 19.79C82.3704 20.21 81.9504 20.4433 81.4371 20.49C80.9238 20.5367 80.4338 20.4433 79.9671 20.21C78.1938 19.0433 76.2804 18.1333 74.2271 17.48C72.2204 16.8267 70.0504 16.5 67.7171 16.5C64.8704 16.5 62.2104 17.0133 59.7371 18.04C57.3104 19.02 55.1871 20.4667 53.3671 22.38C51.5471 24.2467 50.1238 26.4633 49.0971 29.03C48.1171 31.5967 47.6271 34.42 47.6271 37.5C47.6271 40.6733 48.1404 43.5667 49.1671 46.18C50.1938 48.7467 51.6171 50.9633 53.4371 52.83C55.3038 54.6967 57.4504 56.12 59.8771 57.1C62.3038 58.08 64.9171 58.57 67.7171 58.57C70.0038 58.57 72.1504 58.2433 74.1571 57.59C76.2104 56.9367 78.1238 56.05 79.8971 54.93C80.3638 54.65 80.8538 54.5567 81.3671 54.65C81.9271 54.6967 82.3704 54.9533 82.6971 55.42C83.1171 55.9333 83.2571 56.4933 83.1171 57.1C83.0238 57.66 82.7204 58.1033 82.2071 58.43C81.0404 59.1767 79.6638 59.8767 78.0771 60.53C76.4904 61.1833 74.8104 61.6967 73.0371 62.07C71.2638 62.49 69.4904 62.7 67.7171 62.7C64.3571 62.7 61.2071 62.0933 58.2671 60.88C55.3271 59.6667 52.7138 57.9633 50.4271 55.77C48.1404 53.53 46.3438 50.87 45.0371 47.79C43.7771 44.71 43.1471 41.28 43.1471 37.5C43.1471 33.86 43.7771 30.5233 45.0371 27.49C46.2971 24.41 48.0471 21.75 50.2871 19.51C52.5271 17.27 55.1404 15.52 58.1271 14.26C61.1138 13 64.3104 12.37 67.7171 12.37C70.3771 12.37 72.9438 12.7433 75.4171 13.49C77.8904 14.2367 80.1304 15.2867 82.1371 16.64Z" fill="url(#paint0_linear_62_26)"/>
<path id="NN" d="M176.292 13C176.899 13 177.366 13.1867 177.692 13.56C178.066 13.9333 178.252 14.4 178.252 14.96V59.76C178.252 60.46 178.019 61.02 177.552 61.44C177.132 61.8133 176.642 62 176.082 62C175.802 62 175.499 61.9533 175.172 61.86C174.846 61.72 174.589 61.5333 174.402 61.3L143.182 19.23L144.372 18.6V60.11C144.372 60.6233 144.186 61.0667 143.812 61.44C143.439 61.8133 142.972 62 142.412 62C141.806 62 141.316 61.8133 140.942 61.44C140.616 61.0667 140.452 60.6233 140.452 60.11V15.1C140.452 14.4 140.662 13.8867 141.082 13.56C141.502 13.1867 141.969 13 142.482 13C142.762 13 143.066 13.07 143.392 13.21C143.719 13.3033 143.976 13.49 144.162 13.77L175.032 55.35L174.332 56.61V14.96C174.332 14.4 174.519 13.9333 174.892 13.56C175.312 13.1867 175.779 13 176.292 13ZM220.92 13C221.527 13 221.993 13.1867 222.32 13.56C222.693 13.9333 222.88 14.4 222.88 14.96V59.76C222.88 60.46 222.647 61.02 222.18 61.44C221.76 61.8133 221.27 62 220.71 62C220.43 62 220.127 61.9533 219.8 61.86C219.473 61.72 219.217 61.5333 219.03 61.3L187.81 19.23L189 18.6V60.11C189 60.6233 188.813 61.0667 188.44 61.44C188.067 61.8133 187.6 62 187.04 62C186.433 62 185.943 61.8133 185.57 61.44C185.243 61.0667 185.08 60.6233 185.08 60.11V15.1C185.08 14.4 185.29 13.8867 185.71 13.56C186.13 13.1867 186.597 13 187.11 13C187.39 13 187.693 13.07 188.02 13.21C188.347 13.3033 188.603 13.49 188.79 13.77L219.66 55.35L218.96 56.61V14.96C218.96 14.4 219.147 13.9333 219.52 13.56C219.94 13.1867 220.407 13 220.92 13Z" fill="url(#paint1_linear_62_26)"/>
<path id="A" d="M109.333 10.7115L109.332 10.7135L86.6356 60.835L86.3798 61.4H87H91.0583H91.3184L91.4239 61.1622C97.7342 46.9416 110.514 18.1153 111.118 16.6507C111.258 16.3111 111.378 16.1667 111.447 16.1139C111.463 16.101 111.474 16.0957 111.479 16.0937C111.48 16.0941 111.482 16.0947 111.485 16.0956C111.518 16.109 111.587 16.1581 111.674 16.2752C111.756 16.3853 111.829 16.5218 111.882 16.6507L111.882 16.6508L111.887 16.6631L132.028 61.1649L132.135 61.4H132.393H136H136.616L136.365 60.8372C129.552 45.5497 115.532 14.1165 113.968 10.7115C113.564 9.83178 113.127 9.24418 112.654 8.91543C112.159 8.57135 111.646 8.52722 111.175 8.69408C110.728 8.8522 110.351 9.18764 110.054 9.54712C109.752 9.91148 109.507 10.3325 109.333 10.7115Z" fill="#680F98" stroke="#680F98" stroke-width="0.8"/>
</g>
</g>
<defs>
<linearGradient id="paint0_linear_62_26" x1="43" y1="8" x2="42.9999" y2="155.108" gradientUnits="userSpaceOnUse">
<stop offset="0.114583" stop-color="#BC6FF1"/>
<stop offset="1" stop-color="#75DBB4"/>
</linearGradient>
<linearGradient id="paint1_linear_62_26" x1="178.5" y1="0" x2="178.5" y2="171.325" gradientUnits="userSpaceOnUse">
<stop offset="0.114583" stop-color="#BC6FF1"/>
<stop offset="1" stop-color="#75DBB4"/>
</linearGradient>
</defs>
</svg>
